<?xml version="1.0" encoding="utf-8"?>
<!-- Generator: Adobe Illustrator 18.1.0, SVG Export Plug-In . SVG Version: 6.00 Build 0)  -->
<svg version="1.1" id="Layer_1" xmlns="http://www.w3.org/2000/svg" xmlns:xlink="http://www.w3.org/1999/xlink" x="0px" y="0px" width='250' height='84'
	viewBox="0.2 166 799.9 267.5" enable-background="new 0.2 166 799.9 267.5" xml:space="preserve">
<path fill="#FFFFFF" d="M30.6,329.3c0,0,0.6-6.7-1.5-9c-0.7-1.5-3.7-7.5-3.5-11.8c-0.5,0.3-7.2,17-7.7,23.1c0.1,2.3,0.1,5.6,4.8,9.9
	c1.5,1.5,5.7,6.5,5.9,8.6c0.1,0.3,0.9,0.2,0.9,0.2s1.7-4.3,8.1-7.9c2-1.3,4.3-2.3,5.7-8.7c0.4-2.1,1.4-8.1,4.6-14.3
	c-0.4-0.1-6,2.8-8.7,4.6c-0.8,0.3-5.9,2.2-7.1,5.2C31.5,329.5,30.9,329.7,30.6,329.3z"/>
<path fill="#FFFFFF" d="M41.3,342.7c0,0-3.2,4.7-7.5,7c-0.7,0.5-4.2,3.9-4.8,7.4c-0.4,0.1-0.9-0.2-0.9-0.2s0-4-2.6-6.3
	c-1.3-1.3-5.6-7.2-6.4-8.3c-0.8-1-1.4-2.5-2.1-4.4c0,0-2.2,17.5-1.4,22.9c0,0,0.8,4.8,6.2,8.5c1.6,1.3,5.7,4.3,8.3,7.7
	c0.3-0.1,2.3-5.3,5.5-8.3c0.9-1.2,3.2-3.8,4-5.3C40.3,362.1,41.5,362.8,41.3,342.7z"/>
<path fill="#FFFFFF" d="M39.8,404.4c0,0-9.4-6-12.9-6.5c-1.3-0.6-5.7-1.8-7.9-13.6c-1.3-6.7-2.8-17-2.8-17s0.3-0.4,0.5,0.1
	c0.2,0.5,1.5,4.5,6.1,7.9c1.5,1.1,7.1,4.9,8.5,9.4c0.4,0.2,1,0,1,0s-0.7-4.6,3.2-9.4c1.2-1.8,4.1-3.8,5.3-8.4
	c0.4-0.1,0.6-0.2,0.6,0.2c0,0.4,0.3,7,2,11c0.4,1.7,3.1,6.8,1,12.7c-0.5,2.1-2.8,6.4-3.3,8C40.7,400.2,39.8,402.5,39.8,404.4z"/>
<path fill="#FFFFFF" d="M102.5,407c0,0-10.6,0.3-16.4,4.7c-1,0.2-4.5,1.7-9.7-2.1c-1.7-0.6-14.6-9.1-16.3-10.3
	c0-0.6,5.7,0.6,9.5-0.7c2.5-0.6,9.4-1.1,12.8,1.1c0,0,0.9-0.7,0.2-1.2c-0.7-0.5-5.1-2.4-5.6-9.6c-0.2-3.3-0.8-8.2-1.1-9.1
	c0.3-0.2,7.3,5.6,13.2,8.3c1.2,0.8,7.6,3.4,7.9,9.6C97.3,398.6,96.7,400.6,102.5,407z"/>
<path fill="#FFFFFF" d="M97,391.7c0,0,4.4,6.4,5.8,10.2c0.6,1.3,2.4,4.6,6,6.9c0.1,0.6,0.1,0.6,0.1,0.6S102.1,409,98,411
	c-1.3,0.5-6.9,3.1-11.4,3.2c0.3,0.5,7.6,4.8,19.1,6.7c2.3,0.5,5.4,1.8,10.2-0.9c1.8-1.1,6.4-6.7,12.1-8.1c0.3-0.3-6.1-5.4-7.5-9
	c-0.7-0.9-2.9-5.6-9.5-6.5c0,0-10.5-2.2-13-4.7C97.5,391.6,97.5,391.7,97,391.7z"/>
<path fill="#FFFFFF" d="M116.6,423c0,0,21.7,1.8,25.5,0.7c1.5-0.5,4.8-2.2,8-8.5c0.8-0.9,3.3-4.4,5.2-5.5c0.1-0.5-1.2-0.7-4.2-2.6
	c-1.8-1.2-7.2-5.8-9.1-7c0,0-4.8-1.9-10.6-1.3c-2.2-0.1-9.5-0.4-11.9-1c0.7,0.9,4.4,3,7.9,8.3c1.8,1.8,4.6,4.5,8.2,5.7
	c0.1,0.4,0.2,0.5,0,0.6c-0.2,0.1-5.7-0.3-10.7,4.3C124,417.2,119.2,422.2,116.6,423z"/>
<path fill="#FFFFFF" d="M144,398c0,0,5.9-0.1,9.3-1c1.4-0.3,7.4-2.3,10.5-2.8c1.5,0,4-0.5,12.4,5c1,0.3,4.2,0.6,4.2,0.6
	s0,0.2-0.1,0.5c-0.1,0.3-3.5,3.9-3.5,7.7c-0.1,1-0.6,7.8-5.6,9.6c-1.9,0.5-10.6,4.1-22.7,5.4c-0.2-0.3,0.3-0.5,2.2-2.8
	c1.9-2.3,5.3-8.1,7.4-9.4c2.2-1.3,6.2-2.5,6.3-2.8c0.1-0.3,0.1-0.9-0.3-0.9c-0.4,0-5.2,1.3-10.4-2.4c-1.4-0.7-6-5-7.2-5.3
	C145.2,399.1,144.3,398.6,144,398z"/>
<path fill="#FFFFFF" d="M203.4,384c0,0-4.3,0.7-9.5-0.8c-1.8-0.4-6.3-2.1-11.8,1.3c-1.8,1-10.6,6.7-14.7,7.3
	c0.3,0.5,0.9,0.8,1.3,0.9c0.4,0.1,5.4,1.1,8.4,3c1.1,0.6,6.5,1.8,8.3,1.7c0,0.5-4.5,5-4,8.5c-0.2,1.1-2.2,7-4.4,9.3
	c0.8,0.1,13.7-5,19.4-9.6c3.1-2.2,4.9-2.5,5.3-9.1c0.3-5.7-0.1-8,0.6-9.3c0.7-1.3,1.4-2.8,1.4-2.8S203.8,384.2,203.4,384z"/>
<linearGradient id="SVGID_1_" gradientUnits="userSpaceOnUse" x1="105.2921" y1="317.5663" x2="376.0105" y2="149.7706">
	<stop  offset="0" style="stop-color:#601531"/>
	<stop  offset="1" style="stop-color:#CB715D"/>
</linearGradient>
<path fill="url(#SVGID_1_)" d="M267.7,299.8c0,73.9-59.9,133.8-133.8,133.8c-73.9,0-133.8-59.9-133.8-133.8
	C0.2,225.9,60.1,166,134,166C207.8,166,267.7,225.9,267.7,299.8z"/>
<path fill="#FFFFFF" d="M83.1,205.6c0,0,2.6-1.2,5.7-8c0,0,4-8.4,14.7-9.4c2.1-0.1,7.8-0.4,20.7,0.1c-1.1,1-9.7,6.8-13.7,12.3
	c-1.1,1.2-5.6,6.3-12.8,6.5C90.5,206,88.5,205.4,83.1,205.6z"/>
<path fill="#FFFFFF" d="M61.8,221.2c0,0,5.3-1.7,14.1,0.7c0,0,3.7,0.1,4.5-0.2c0.8-0.3,14.6-9,17.8-9.6c0,0,0.9-0.4-4.7-1.3
	c-2.2-0.4-9.1-3.6-16.3-0.9c0-0.9-0.1-1.7,0.4-2c0.5-0.3,4.6-1,6.3-9c0.5-1.4,3.7-8.1,5.6-9.9c-0.7,0.1-17.4,6.1-22.2,12.9
	c-0.4,0.8-1.7,2.5-2.6,11C64.2,214.6,64.9,217.8,61.8,221.2z"/>
<path fill="#FFFFFF" d="M63.7,202.9c0,0-16.3,12.7-17.7,16.1c0,0-3.4,5.3-1.9,13.6c0.3,2.8,0.6,7.9,0.6,9.2
	c2.3-0.9,9.4-2.9,14.8-3.8c0,0,5.2-1.1,9.7-6.9c1.3-1.3,6.6-6.3,8.2-7c0,0-16.1-3.1-20.5,2.4c-0.7,0.4-1-0.2-1-0.2s2.9-2.3,4-6.4
	c0,0,0.5-4.6,1.1-8.6C62.1,208.2,63.9,203.2,63.7,202.9z"/>
<path fill="#FFFFFF" d="M33.3,266.4c0,0-1.3-7.2-5.1-14.5c-0.3-1.3-1.9-6,2.4-12c2-3.5,10.2-14.9,10.2-14.9s-0.3,8.3,0.2,10.8
	c0.5,2.6,1.2,7.9-1.5,14.2c0.4,0.4,1.3,0.3,1.3,0.3s1.2-5.4,6.5-6.6c1.8-0.4,8.8-1.5,13.8-4.5c0,0.8-6.9,8.8-8.8,13.3
	c-0.5,1.3-2.6,7.2-9.9,8.7C40.9,262,35.4,263.4,33.3,266.4z"/>
<path fill="#FFFFFF" d="M30.6,271.7c0,0,0.6-6.7-1.5-9c-0.7-1.5-3.7-7.5-3.5-11.8c-0.5,0.3-7.2,17-7.7,23.1c0.1,2.3,0.1,5.6,4.8,9.9
	c1.5,1.5,5.7,6.5,5.9,8.6c0.1,0.3,0.9,0.2,0.9,0.2s1.7-4.3,8.1-7.9c2-1.3,4.3-2.3,5.7-8.7c0.4-2.1,1.4-8.1,4.6-14.3
	c-0.4-0.1-6,2.8-8.7,4.6c-0.8,0.3-5.9,2.2-7.1,5.2C31.5,271.9,30.9,272.1,30.6,271.7z"/>
<path fill="#FFFFFF" d="M41.3,285.2c0,0-3.2,4.7-7.5,7c-0.7,0.5-4.2,3.9-4.8,7.4c-0.4,0.1-0.9-0.2-0.9-0.2s0-4-2.6-6.3
	c-1.3-1.3-5.6-7.2-6.4-8.3c-0.8-1-1.4-2.5-2.1-4.4c0,0-2.2,17.5-1.4,22.9c0,0,0.8,4.8,6.2,8.5c1.6,1.3,5.7,4.3,8.3,7.7
	c0.3-0.1,2.3-5.3,5.5-8.3c0.9-1.2,3.2-3.8,4-5.3C40.3,304.6,41.5,305.2,41.3,285.2z"/>
<path fill="#FFFFFF" d="M39.8,346.9c0,0-9.4-6-12.9-6.5c-1.3-0.6-5.7-1.8-7.9-13.6c-1.3-6.7-2.8-17-2.8-17s0.3-0.4,0.5,0.1
	c0.2,0.5,1.5,4.5,6.1,7.9c1.5,1.1,7.1,4.9,8.5,9.4c0.4,0.2,1,0,1,0s-0.7-4.6,3.2-9.4c1.2-1.8,4.1-3.8,5.3-8.4
	c0.4-0.1,0.6-0.2,0.6,0.2c0,0.4,0.3,7,2,11c0.4,1.7,3.1,6.8,1,12.7c-0.5,2.1-2.8,6.4-3.3,8C40.7,342.6,39.8,344.9,39.8,346.9z"/>
<path fill="#FFFFFF" d="M54.8,367.7c0,0-2.4-1.9-12.4-1.8c-1.2-0.1-8.3-1.3-10.5-8.2c-1.2-1.9-4.3-8.1-8.4-16.9
	c0.2-0.2,0.6-0.1,0.6-0.1s2.5,3.8,7.4,5.2c2.1,0.6,9.3,2.7,10.9,6.1c0.4-0.1,0.6-0.6,0.6-0.6s-1.7-5.9,1.9-11.6
	c0.4-1.3,1.9-3.8,2.5-6.9c0.4,0.1,5.4,10.5,7.4,14.1c0,0,3.6,5.3,1.8,9.7C56.4,357.7,53.9,361.4,54.8,367.7z"/>
<path fill="#FFFFFF" d="M76.3,386.1c0,0-7.5-0.9-11.5,0.9c-1,0.2-8.2,1-12.3-3.2c-1.1-1.1-12.2-11.8-13.7-15.5
	c0.2-0.3,2.1,1.7,7,1.3c3.4,0.1,11.2,0.7,13,3.5c0.5,0.1,0.9-0.1,0.9-0.1s0-1-0.4-1.9c-0.4-0.8-2.2-7.3-0.4-11.7
	c0.2-1.9,0.1-4.2-0.6-6.9c0.4-0.1,4.3,5.1,6.6,7.6c2.3,2.6,9.7,8.7,8.7,12.6c0.1,1.7,0,4,0.7,8.1C75.2,382.8,75.8,385.5,76.3,386.1z
	"/>
<path fill="#FFFFFF" d="M102.5,398c0,0-10.6,0.3-16.4,4.7c-1,0.2-4.5,1.7-9.7-2.1c-1.7-0.6-14.6-9.1-16.3-10.3
	c0-0.6,5.7,0.6,9.5-0.7c2.5-0.6,9.4-1.1,12.8,1.1c0,0,0.9-0.7,0.2-1.2c-0.7-0.5-5.1-2.4-5.6-9.6c-0.2-3.3-0.8-8.2-1.1-9.1
	c0.3-0.2,7.3,5.6,13.2,8.3c1.2,0.8,7.6,3.4,7.9,9.6C97.3,389.6,96.7,391.6,102.5,398z"/>
<path fill="#FFFFFF" d="M97,382.7c0,0,4.4,6.4,5.8,10.2c0.6,1.3,2.4,4.6,6,6.9c0.1,0.6,0.1,0.6,0.1,0.6s-6.7-0.4-10.8,1.5
	c-1.3,0.5-6.9,3.1-11.4,3.2c0.3,0.5,7.6,4.8,19.1,6.7c2.3,0.5,5.4,1.8,10.2-0.9c1.8-1.1,6.4-6.7,12.1-8.1c0.3-0.3-6.1-5.4-7.5-9
	c-0.7-0.9-2.9-5.6-9.5-6.5c0,0-10.5-2.2-13-4.7C97.5,382.6,97.5,382.7,97,382.7z"/>
<path fill="#FFFFFF" d="M116.6,414c0,0,21.7,1.8,25.5,0.7c1.5-0.5,4.8-2.2,8-8.5c0.8-0.9,3.3-4.4,5.2-5.5c0.1-0.5-1.2-0.7-4.2-2.6
	c-1.8-1.2-7.2-5.8-9.1-7c0,0-4.8-1.9-10.6-1.3c-2.2-0.1-9.5-0.4-11.9-1c0.7,0.9,4.4,3,7.9,8.3c1.8,1.8,4.6,4.5,8.2,5.7
	c0.1,0.4,0.2,0.5,0,0.6c-0.2,0.1-5.7-0.3-10.7,4.3C124,408.2,119.2,413.2,116.6,414z"/>
<path fill="#FFFFFF" d="M144,389c0,0,5.9-0.1,9.3-1c1.4-0.3,7.4-2.3,10.5-2.8c1.5,0,4-0.5,12.4,5c1,0.3,4.2,0.6,4.2,0.6
	s0,0.2-0.1,0.5c-0.1,0.3-3.5,3.9-3.5,7.7c-0.1,1-0.6,7.8-5.6,9.6c-1.9,0.5-10.6,4.1-22.7,5.4c-0.2-0.3,0.3-0.5,2.2-2.8
	c1.9-2.3,5.3-8.1,7.4-9.4c2.2-1.3,6.2-2.5,6.3-2.8c0.1-0.3,0.1-0.9-0.3-0.9c-0.4,0-5.2,1.3-10.4-2.4c-1.4-0.7-6-5-7.2-5.3
	C145.2,390.2,144.3,389.6,144,389z"/>
<path fill="#FFFFFF" d="M203.4,375.1c0,0-4.3,0.7-9.5-0.8c-1.8-0.4-6.3-2.1-11.8,1.3c-1.8,1-10.6,6.7-14.7,7.3
	c0.3,0.5,0.9,0.8,1.3,0.9c0.4,0.1,5.4,1.1,8.4,3c1.1,0.6,6.5,1.8,8.3,1.7c0,0.5-4.5,5-4,8.5c-0.2,1.1-2.2,7-4.4,9.3
	c0.8,0.1,13.7-5,19.4-9.6c3.1-2.2,4.9-2.5,5.3-9.1c0.3-5.7-0.1-8,0.6-9.3c0.7-1.3,1.4-2.8,1.4-2.8S203.8,375.3,203.4,375.1z"/>
<path fill="#FFFFFF" d="M221.1,353c0,0-4.6,2.2-8.3,3c-1.7,0.2-7-0.7-9.1,1.2c-0.7,0.7-11.8,12.1-14.9,13.5c0.4,0.2,5.9-0.4,7.4,0.6
	c1,0.3,1.8,1.7,11.3,0.2c0.1,0.8-1.3,3.8-2,5.9c-0.3,0.8-1.1,0.9-1.4,13.2c0.4,0,13.6-11.3,15.3-14.3c1.1-1.8,2.2-2.7,2.2-7.6
	c-0.2-1.5-1.5-7-1.3-10.6C220.8,355.9,221.4,353.2,221.1,353z"/>
<path fill="#FFFFFF" d="M206,353.5c2.9-3.6,5.9-7.4,8.6-13.4c1.3-3.1,2.9-5.2,8.7-7.9c2.5-0.9,8.2-2.6,9.8-4.8
	c0.5,0.5,1.3,6.6,4,9.2c1.1,1.5,4.2,6.2,1.1,11.5c-0.6,1.5-8.9,17.8-13.8,22.7c-0.2-0.5-1.9-11.2-0.7-16.6c0.4-2,1-4.5,2.1-6.4
	c-0.4-0.1-4.1,3.4-9.4,3.9C215.1,352,206.8,353.9,206,353.5z"/>
<path fill="#FFFFFF" d="M235.4,319c0,0-2.3,5.8-8.7,8c-1.1,0.4-6.2,2.3-7.5,4c0-0.9,2.9-6.7,3.6-13.5c0.5-3.2,1.7-5.9,4.9-9.3
	c2.8-2.2,6.9-4.2,9.2-8c0.5-1.7,0.6-7.2,0.6-7.2h1.4c0,0-0.1,6.5,0.1,7.1c0.2,0.6,0.4,2.5,2.2,4.1c0.6,1,6.6,8,6.4,10.7
	c0.2,1.8,0.6,12.7-6.1,26.1c-0.3-0.2-1.1-5.6-3.2-10c-0.8-1.1-2.5-3.5-2.5-6.6C235.8,321.3,235.8,319.1,235.4,319z"/>
<g>
	<path fill="#FFFFFF" d="M133.3,263.4c0,0-9.6-0.2-11.6-8.9c-0.5-2.6-1.1-6.1,1.3-11.5c5.3-6.8,7.1-9.2,7.8-10.6
		c0.8-1.5,1.5-4.6-0.8-7.8c0,0,4.1,1.2,6.8,6.3c0.4,1.5,1.5,7.3-1.7,10.7c-0.9,1.2-5.1,6.8-5.2,9.2c-0.5,2.8-0.6,5.3,2.8,10.4
		C133.6,263,133.3,263.4,133.3,263.4z"/>
	<path fill="#FFFFFF" d="M140.7,231.5c2,12.6-3.3,12.6-6.8,20.3c-0.3,1.3-2.2,7.8,5.7,11.8c0.1-0.4-1.7-5.1,1.9-8.3
		c2.2-2.3,6.2-5.7,7.7-9.3C149.6,243.5,149.3,236.5,140.7,231.5z"/>
	<path fill="#FFFFFF" d="M151.2,249.4c0,0,0.1,3.3-0.4,4.8c-1.7,4.1-6.2,4.8-5.8,8.7c0,0-5.2,0.7-2.2-4.2
		C145.9,255.2,147.5,255.2,151.2,249.4z"/>
	<rect x="115.9" y="268.9" fill="#FFFFFF" width="40.8" height="4.5"/>
	<rect x="118.6" y="275.8" fill="#FFFFFF" width="35.3" height="5.1"/>
	<rect x="116.3" y="283.4" fill="#FFFFFF" width="40.1" height="3.8"/>
	<polygon fill="#FFFFFF" points="121.7,289.5 149.7,289.5 143.5,328 126.8,328 	"/>
	<polygon fill="#712F49" points="125,293 130.3,293 131.9,323 129.7,323 128.2,295.1 125,295.1 	"/>
	<polygon fill="#712F49" points="132.1,293 137.4,293 137.4,323 135.2,323 135.2,295.1 132.1,295.1 	"/>
	<polygon fill="#712F49" points="139.6,293 144.8,293 142.2,323 140,323 142.3,295.1 139.6,295.1 	"/>
	<rect x="124.5" y="330.7" fill="#FFFFFF" width="21.3" height="2.9"/>
	<rect x="125.6" y="335.9" fill="#FFFFFF" width="19.2" height="1.2"/>
	<rect x="124.2" y="339.9" fill="#FFFFFF" width="21.8" height="2.5"/>
	<path fill="#FFFFFF" d="M126.6,344.7c0,0,15.2,0,17.1,0c-1.2,1.9-1.5,2.6-2,10.5c-1,0.1-10.5,0.1-12.1,0
		C129.7,347.9,128.8,345.8,126.6,344.7z"/>
	<path fill="#FFFFFF" d="M133.3,357.6h5.1c0,0-1.3,4.5-1,9.3c-0.7,0.1-2.9,0-2.9,0S135.2,361.7,133.3,357.6z"/>
	<path fill="#FFFFFF" d="M152.3,297c0,0,20.8,3.8,25.3,23.8c0.4,3.6,2.2,15.8-5.8,27.2c1.2,0.1,2.9,0,3.5,0c0.9-2.3,2.2-3.2,4.6-3.3
		c0,0,1-0.1,1.2-0.7c0.1-0.6,0.6-2-1.6-2c-0.1-1,0.9-3.5,1.2-4.6c0.3,0,2.6-0.3,2.6-0.3l0.3-2.6l-1.7-0.3c0,0,0.1-3.3,0-4.6
		c0.4-0.1,2.8,0,2.9-0.7c0.1-0.7,0.9-2.5-2.6-3.2c0,0-0.9-2.8-0.4-3.6c0.6-0.4,2.2,0,2.3-0.9c0.1-0.9,0.6-3-0.1-3.2
		c-0.7-0.1-2.8,0.1-3.9-0.7c-0.3-0.9-1.2-2.9-0.3-3.6c0.9-0.4,2.2-1.2,2.2-2.3c-0.4-1-2.2-1.6-4.9-1.6c-0.3-0.4-1.3-1.6-0.6-2.9
		c0.9-0.7,2.2-2.3,0-3.3c-0.6,0-1.9,0.9-2.6,0.7c-0.7-0.1-3.1-1.5-2.9-2.5c0.1-1,1.3-1.9,1.2-2.8c-0.1-0.9-1.3-2.5-2-2.2
		c-0.7,0.3-1.9,1.9-3.9,1.5c-0.9-0.4-2.5-1.6-1.9-3.3c0.3-1.5-0.6-2.8-2-2.6c-0.9,0.4-1,1.6-1.7,2.3c-1,0-2.8,0.3-3.8-1.5
		c0-1.2,0.1-2.9-0.6-3.1C155.2,289.8,151.9,288.6,152.3,297z"/>
	<path fill="#FFFFFF" d="M165.8,349.3c29.3-35-12.1-52.7-14.4-50.7c0,0-0.3,5.1-0.7,5.7c0.3-1.9,38.2,14.2,9.3,45H165.8z"/>
	<path fill="#FFFFFF" d="M150.3,306c-0.4,0.7-2,10.6-2.3,12.5c3.5-0.9,15.4,10.8,0.4,18.3c3.2,1.8,3.6,6.3,2.7,8.2
		c0,0-3.1,1.2-5.2,1.2c0,1.2-0.2,1.4-0.2,2.5C168.7,349.7,180.1,314.5,150.3,306z"/>
	<path fill="#FFFFFF" d="M147.4,320.8c0,0-1.2,6.4-1,7c0.2,0.6,2.1,0.2,2.3,0.8c0.2,0.6,0.8,3.3,0.4,4.1
		C153.6,332.1,155.7,322,147.4,320.8z"/>
	<path fill="#FFFFFF" d="M121.6,313.9c-4.1-1.9-11.6-6.4-17.6,2.7C110.2,320.8,119.1,315.6,121.6,313.9z"/>
	<path fill="#FFFFFF" d="M117,319.1c0,0-4.3-0.8-5.8,5.2c-0.6,2.1-1.7,5.8-3.3,8.1c1.2,0,4.6,0,8.5-5.6
		C117.4,325.3,117.6,320.8,117,319.1z"/>
	<path fill="#FFFFFF" d="M110.6,320.5c0,0,0,6.4-7.9,7.4c-1.9,0.4-8.1,0.8-9.1,0.8c1.9-1.4,4.8-3.5,7.6-7
		C103.1,319.9,105.2,319.7,110.6,320.5z"/>
	<path fill="#FFFFFF" d="M104.8,329.4c0,0-0.2,5.8-10.3,8.3c1.5-1.9,3.3-3.9,4.5-6.4C100.3,329.9,101.9,329.6,104.8,329.4z"/>
	<path fill="#FFFFFF" d="M95.9,339c0,0,0,2.9,2.3,6.6c1.4-1.2,3.3-3.1,3.3-8.5C100.5,337.3,97.1,337.9,95.9,339z"/>
	<path fill="#FFFFFF" d="M111.6,333c0,0,2.3-1,2.9-1.7c0.4,2.1-0.4,6.6-1,7.9C112.7,339,113.1,335.4,111.6,333z"/>
	<path fill="#FFFFFF" d="M77.9,321.2c5.2-2.1,10.5-6.2,17.4,0.8c-0.8,1-2.3,2.9-8.1,1.5C85.1,322.6,82.9,320.8,77.9,321.2z"/>
	<path fill="#FFFFFF" d="M75,333.8c0,0,3.7-3.1,7.6-6.2c1.9-1,7.4-1.9,8.3,0.2c-0.2,1.2-1.7,3.5-6.8,4.8
		C82.5,332.7,79.4,332.9,75,333.8z"/>
	<path fill="#FFFFFF" d="M85.1,335.4c0,0-5.8,4.1-11.6,5.8c0.4,0.6,1.7,0.8,2.7,0.8s4.5-1.4,6.4-2.1C84.5,339,85.2,337.9,85.1,335.4
		z"/>
	<path fill="#FFFFFF" d="M93.8,330.5c0,0-5.4-0.6-7.2,5.6c-0.2,2.5-0.8,7.2-1.2,8.9c1.5-0.6,4.3-2.1,6.2-4.3
		c0.4-0.8-0.8-0.6-1.2-1.2c-0.4-0.6,0-2.1,1.5-2.7C93.6,336.3,94.3,335.2,93.8,330.5z"/>

		<rect x="108" y="300.4" transform="matrix(0.27 0.9629 -0.9629 0.27 376.512 105.4063)" fill="#FFFFFF" width="21.5" height="1.2"/>

		<rect x="105.7" y="299.6" transform="matrix(0.3247 0.9458 -0.9458 0.3247 362.1802 93.1725)" fill="#FFFFFF" width="20.3" height="1.2"/>

		<rect x="102.9" y="299" transform="matrix(0.4296 0.903 -0.903 0.4296 334.2117 70.0271)" fill="#FFFFFF" width="17.6" height="1.2"/>

		<rect x="100.2" y="299.6" transform="matrix(0.5228 0.8525 -0.8525 0.5228 307.7994 50.635)" fill="#FFFFFF" width="17" height="1.2"/>

		<rect x="97.6" y="300.7" transform="matrix(0.6039 0.7971 -0.7971 0.6039 281.9757 35.196)" fill="#FFFFFF" width="16" height="1.2"/>

		<rect x="95.1" y="302" transform="matrix(0.6643 0.7475 -0.7475 0.6643 260.8053 24.3847)" fill="#FFFFFF" width="16.3" height="1.2"/>

		<rect x="93.2" y="303.6" transform="matrix(0.7009 0.7133 -0.7133 0.7009 247.1971 18.9308)" fill="#FFFFFF" width="15.7" height="1.2"/>

		<rect x="90.5" y="305.4" transform="matrix(0.7421 0.6703 -0.6703 0.7421 230.4964 12.8047)" fill="#FFFFFF" width="16.2" height="1.2"/>

		<rect x="88.5" y="307.2" transform="matrix(0.775 0.6319 -0.6319 0.775 216.217 8.2128)" fill="#FFFFFF" width="16.2" height="1.2"/>

		<rect x="86.8" y="309.6" transform="matrix(0.8357 0.5491 -0.5491 0.8357 185.9371 -1.1732)" fill="#FFFFFF" width="16.2" height="1.2"/>

		<rect x="85.4" y="312" transform="matrix(0.8718 0.4898 -0.4898 0.8718 165.1011 -5.7177)" fill="#FFFFFF" width="16.2" height="1.2"/>

		<rect x="84.4" y="314.5" transform="matrix(0.8992 0.4375 -0.4375 0.8992 147.144 -8.6802)" fill="#FFFFFF" width="15.9" height="1.2"/>

		<rect x="83.8" y="316.2" transform="matrix(0.9096 0.4156 -0.4156 0.9096 139.9046 -9.2706)" fill="#FFFFFF" width="14.9" height="1.2"/>

		<rect x="83" y="316.8" transform="matrix(0.8816 0.4719 -0.4719 0.8816 159.9297 -2.9372)" fill="#FFFFFF" width="5.7" height="1.2"/>
	<path fill="#712F49" d="M152.8,309.2c0,0,4.6-0.4,5,3.3c-0.4,1.4-3.7,5.4-4.8,5.6c-1.2,0.2-3.7-0.8-3.5-1.7
		C149.7,315.4,151.3,310.8,152.8,309.2z"/>
	<path fill="#712F49" d="M156.9,322c0,0,4.1-0.6,6.6-2.9c0.2-1-0.2-3.9-2.3-4.6c-1,0.4-5.6,3.3-5.8,4.5
		C155.1,320.1,155.7,321.2,156.9,322z"/>
	<path fill="#712F49" d="M165.4,323.8c0,0,1.2,4.1-0.8,5.4c-1.2,0.4-6.2,0.6-6.6-0.4c-0.4-1-1.5-3.3,1.2-4.8
		C161.7,323.4,165,323.6,165.4,323.8z"/>
	<path fill="#712F49" d="M158.4,330.7c0,0,7.4,1.6,5,4.6c-0.4,1.4-0.8,2.7-3.7,1.9C158.2,336.5,153.4,334,158.4,330.7z"/>
	<path fill="#712F49" d="M154.4,335.8c0,0,7.7,5.4,2.3,7.2C154.6,344.5,149.3,338.3,154.4,335.8z"/>
	<path fill="#FFFFFF" d="M154.8,312.5c0,0-2.5,2.7-2.5,3.5c0,0.8,1.5-0.2,2.3-1.2C155.3,313.9,154.8,312.5,154.8,312.5z"/>
	<path fill="#FFFFFF" d="M159.5,326.2c0,0,3.8-0.3,3.9,0.1c0.1,0.4,0.6,1.6-0.1,1.6C162.5,328,158.3,328.7,159.5,326.2z"/>
	<path fill="#FFFFFF" d="M157.7,332.9c0,0,3.3,1.5,3.1,2.2C160.5,335.8,156.8,335.9,157.7,332.9z"/>
	<path fill="#FFFFFF" d="M153.5,338c0,0,2.6,2.8,1.9,3C154.7,341.3,152.8,340.7,153.5,338z"/>
	<path fill="#FFFFFF" d="M160.5,317.9c0,0-2.8,1.7-3.1,2.2C157.1,320.6,160.3,320.7,160.5,317.9z"/>
</g>
<g>
	<g>
		<g>
			<path fill="#601531" d="M787.6,366.6c0-8.2,0-15.9,0-23.8c-1.8-0.6-3.6-1.3-5.4-1.9c0-1.4,0-2.9,0-4.5c6,0,11.9,0,18,0
				c0,1.5,0,3,0,4.7c-1.2,0.5-2.6,1.1-4.3,1.7c0,14.4,0,28.8,0,43.5c-2.3,0-4.4,0-6.8,0c-8-9.9-16.1-20-24.6-30.5
				c0,8.5,0,16.4,0,24.4c1.7,0.6,3.3,1.2,5.2,1.8c0,1.3,0,2.7,0,4.2c-6.3,0-12.5,0-19,0c0-1.4,0-2.7,0-4.2c1.7-0.6,3.5-1.1,5.6-1.8
				c0-1.2,0-2.4,0-3.6c0-9.2-0.2-18.5,0.1-27.7c0.1-3.6-1.5-5.6-4.3-7.1c-0.7-0.4-1.4-0.6-2.2-1c0-1.4,0-2.8,0-4.5
				c2.8-0.4,5.6,0.1,8.3-0.3c3.7-0.4,6.1,1,8.3,3.9c6.1,8.2,12.6,16.1,19,24.1C786,364.9,786.6,365.6,787.6,366.6z"/>
			<path fill="#601531" d="M456.3,361c0.1-3.6,0.7-7.1,1.9-10.5c3-8.1,8.7-13,17.2-14.5c4.9-0.9,9.8-0.7,14.4,1.4
				c8.1,3.8,12,10.6,13.4,19c0.8,5,0.5,9.9-1.1,14.8c-4.1,12.9-16.2,17.4-26.5,15.6c-10.3-1.8-16-8.5-18.4-18.3
				C456.7,366.1,456.6,363.5,456.3,361z M491.2,364.3c0-1,0.1-2,0-3c-0.3-4-0.8-8-2.6-11.6c-2.2-4.5-5.8-7.3-11-7.2
				c-4.2,0.1-5.7,1.2-7,5.3c-2.6,8.2-2.2,16.4,0.6,24.5c0.4,1,0.9,2.1,1.5,3c2.6,4,6.2,5.8,11,5.5c2.4-0.2,3.9-1.1,5-3.2
				C490.7,373.4,491.2,368.9,491.2,364.3z"/>
			<path fill="#601531" d="M701.3,361c0-4.2,0.8-8.3,2.5-12c3.5-7.9,9.6-12.3,18.2-13.2c6.9-0.8,13.3,0.5,18.6,5.4
				c3.9,3.6,6.1,8.1,7.3,13.2c1.2,5.8,1.1,11.5-0.8,17.1c-4.1,12.6-16.1,17.1-26.3,15.4c-10.3-1.7-16-8.5-18.4-18.2
				C701.7,366.1,701.6,363.6,701.3,361z M736.2,364.4c0-1,0.1-2,0-3c-0.3-4-0.9-8-2.6-11.6c-2.3-4.9-6.6-7.5-11.4-7.2
				c-3.4,0.2-5.7,1.6-6.8,5.2c-2.4,8.3-2.1,16.4,0.7,24.5c0.4,1,0.9,2.1,1.5,3c2.5,4,6.1,5.9,11,5.5c2.4-0.2,3.9-1.1,5-3.2
				C735.7,373.4,736.2,368.9,736.2,364.4z"/>
			<path fill="#601531" d="M334.1,380.2c2,0.7,3.6,1.3,5.4,1.9c0,1.3,0,2.7,0,4.2c-6.4,0-12.7,0-19.2,0c0-1.4,0-2.7,0-4
				c0.2-0.2,0.3-0.4,0.5-0.4c6.2-1.8,4.6-0.9,6.7-6.6c4.4-12.3,8.7-24.7,13-37.1c0.2-0.6,0.5-1.2,0.9-1.9c4.2,0,8.4,0,12.9,0
				c0.4,0.9,0.9,1.9,1.2,2.9c4.3,12.3,8.6,24.5,12.7,36.8c1.1,3.2,2.6,5.3,6,5.6c0.3,0,0.6,0.2,1,0.4c0,1.3,0,2.6,0,4.1
				c-7.8,0-15.5,0-23.5,0c0-1.3,0-2.7,0-4.2c1.6-0.6,3.4-1.1,5.4-1.8c-1-3-1.9-5.9-2.9-8.9c-5.7,0-11.2,0-17,0
				C336.2,374.2,335.2,377,334.1,380.2z M352.1,364.8c-2.1-6.6-4.1-12.7-6.1-18.8c-0.2,0-0.4,0-0.7,0.1c-2,6.2-4.1,12.4-6.1,18.7
				C343.5,364.8,347.5,364.8,352.1,364.8z"/>
			<path fill="#601531" d="M631.6,382.2c0,1.4,0,2.6,0,3.8c-2.4,0.6-19.7,0.8-23.7,0.2c-0.1-0.4-0.2-0.8-0.2-1.2c0-0.9,0-1.8,0-2.8
				c1.9-0.6,3.6-1.2,5.7-1.9c-1-3-1.9-5.9-2.9-8.9c-5.7,0-11.2,0-17.1,0c-1,2.8-1.9,5.7-3,8.8c1.9,0.7,3.5,1.2,5.4,1.9
				c0,1.2,0,2.6,0,4.2c-6.4,0-12.7,0-19.1,0c0-1.4,0-2.7,0-4c0.1-0.1,0.2-0.4,0.4-0.4c6.2-1.8,4.7-0.7,6.8-6.8
				c4.4-12.2,8.6-24.5,12.9-36.8c0.2-0.6,0.5-1.2,0.8-2c4.2,0,8.4,0,12.9,0c0.4,0.9,0.8,1.8,1.2,2.9c4.3,12.3,8.6,24.5,12.7,36.8
				c1.1,3.2,2.5,5.3,5.9,5.7C630.8,381.7,631,382,631.6,382.2z M595.5,364.9c2.5,0,4.5,0,6.5,0c2,0,4.1-0.1,6.4-0.1
				c-2-6.6-3.9-12.8-6.6-18.7C599.7,352.2,597.7,358.4,595.5,364.9z"/>
			<path fill="#601531" d="M410.8,338.9c0,4.7,0,8.9,0,13.3c-2.4,0-4.7,0-7.3,0c-0.6-2.1-1.2-4.2-1.8-6.3c-0.4-1.6-1.2-2.6-2.8-2.8
				c-1.3-0.2-2.6-0.5-3.9-0.7c-2.4-0.4-4.1,0.7-5.2,2.7c-1.2,2.3-1.2,4.6,0.5,6.5c1.1,1.2,2.5,2.2,4,2.9c2.5,1.2,5.1,2.2,7.6,3.3
				c1.6,0.7,3.2,1.6,4.7,2.5c7.6,4.6,7.7,14.6,3.1,20.1c-3.6,4.3-8.4,6.2-13.7,6.7c-6.3,0.6-12.1-0.9-17.6-4.3c0-3.8,0-7.5,0-11.5
				c2.3,0,4.5,0,7.1,0c0.5,2.1,1.1,4.3,1.7,6.6c3,2.3,6.6,2.9,10.3,3c0.8,0,1.9-0.6,2.5-1.2c2.8-2.9,2.5-7.9-0.8-10.3
				c-1.6-1.2-3.4-2-5.3-2.8c-2.6-1.2-5.3-2.2-8-3.3c-10.8-4.7-10.3-18-1.8-23.8c6.4-4.3,13.3-4.5,20.5-2.7
				C406.9,337.2,408.8,338.1,410.8,338.9z"/>
			<path fill="#601531" d="M450.2,338.7c0,4.8,0,9,0,13.4c-2.4,0-4.8,0-7.4,0c-0.6-2.2-1.2-4.3-1.8-6.4c-0.4-1.4-1.1-2.3-2.6-2.6
				c-1.3-0.2-2.6-0.5-3.9-0.8c-2.6-0.5-4.3,0.6-5.4,2.9c-1.1,2.3-1.1,4.6,0.7,6.5c1,1.1,2.4,2,3.7,2.7c2.6,1.3,5.3,2.2,7.9,3.4
				c1.6,0.7,3.2,1.6,4.7,2.5c7.2,4.3,7.7,13.9,3.3,19.6c-3.1,4-7.3,6-12.2,6.8c-7,1.2-13.4-0.4-19.5-4c0-3.9,0-7.6,0-11.6
				c2.3,0,4.5,0,7.1,0c0.5,2.1,1.1,4.4,1.7,6.7c3.1,2.2,6.6,2.8,10.1,3c1.8,0.1,3.4-1.4,4.2-3.6c1-2.9,0.1-6.3-2.4-8.1
				c-1.5-1.1-3.3-1.9-5-2.7c-2.6-1.2-5.3-2.2-8-3.3c-11-4.7-10.5-18.2-1.8-24c5.4-3.7,11.4-4.2,17.6-3.2
				C444.4,336.6,447.2,337.7,450.2,338.7z"/>
			<path fill="#601531" d="M643.5,380.3c0-12.4,0-24.6,0-37.1c-2.1,0-4.2,0-6.4,0c-0.8,3-1.6,5.9-2.4,9c-2.2,0-4.3,0-6.6,0
				c0-5.3,0-10.4,0-15.8c14.5,0,28.7,0,43.4,0c0,2.6,0.1,5.3,0.1,7.9c0,2.5,0,5.1,0,7.8c-2.3,0-4.4,0-6.9,0c-0.7-2.8-1.4-5.8-2.2-9
				c-2.2,0-4.4,0-6.6,0c-0.7,2.3-0.9,29.7-0.3,37.1c1.6,0.6,3.4,1.2,5.3,1.8c0,1.3,0,2.7,0,4.2c-7.6,0-15,0-22.7,0
				c0-1.3,0-2.7,0-4.2C640,381.5,641.7,380.9,643.5,380.3z"/>
			<path fill="#601531" d="M543.9,373c1.3,0.9,2.4,1.7,3.6,2.5c-3.7,6.9-9.2,11.1-16.9,11.6c-8.1,0.5-14.8-2.4-19.4-9.4
				c-4.2-6.4-4.7-13.5-3.7-20.9c0.8-5.4,2.9-10.2,6.7-14.3c4-4.2,8.8-6.6,14.7-6.9c5.6-0.3,11.1,0.4,16.3,2.8c0,4.5,0,8.9,0,13.5
				c-2.4,0-4.7,0-7.2,0c-0.7-2.6-1.5-5.3-2.2-8c-3.1-1.5-6.4-1.8-9.7-1.4c-0.8,0.1-1.8,0.9-2.3,1.6c-2.2,2.8-3.2,6.1-3.6,9.5
				c-0.5,4.9-0.6,9.8,0.6,14.6c0.4,1.6,1.1,3.1,1.8,4.6c3.6,7.8,14.1,8.5,19.3,2.6C542.5,374.8,543.1,374,543.9,373z"/>
			<path fill="#601531" d="M680.2,342.7c-1.7-0.6-3.4-1.2-5.2-1.8c0-1.4,0-2.9,0-4.5c7.6,0,15,0,22.7,0c0,1.5,0,2.9,0,4.5
				c-0.8,0.3-1.7,0.6-2.6,0.9c-0.8,0.3-1.7,0.6-2.7,0.9c0,12.5,0,25.1,0,37.9c1.6,0.6,3.4,1.2,5.3,1.9c0,1.2,0,2.5,0,3.9
				c-7.5,0-15,0-22.6,0c0-1.2,0-2.5,0-4c1.6-0.5,3.3-1.1,5.1-1.7C680.2,367.9,680.2,355.4,680.2,342.7z"/>
			<path fill="#601531" d="M556.1,342.7c-1.7-0.6-3.3-1.2-5.2-1.8c0-1.3,0-2.8,0-4.5c7.6,0,15,0,22.7,0c0,1.5,0,2.8,0,4.5
				c-1.6,0.5-3.3,1.1-5.3,1.8c0,12.5,0,25.1,0,37.9c1.6,0.6,3.3,1.2,5.3,1.9c0,1.2,0,2.5,0,3.9c-7.6,0-15.1,0-22.7,0
				c0-1.4,0-2.5,0-3.9c1.7-0.6,3.5-1.1,5.3-1.7C556.1,367.9,556.1,355.4,556.1,342.7z"/>
		</g>
		<g>
			<path fill="#601531" d="M427.8,209.8c-4.8,11.2-9.6,22.4-14.4,33.6c-1.7,0-3.3,0-5.1,0c-4.8-11-9.6-22.1-14.5-33.2
				c-0.7,2-0.9,18.3-0.4,27.1c1.7,0.6,3.4,1.2,5.3,1.9c0,1.3,0,2.7,0,4.2c-6.4,0-12.7,0-19.1,0c0-1.4,0-2.8,0-4.2
				c1.8-0.6,3.6-1.2,5.4-1.8c0-12.6,0-24.9,0-37.6c-1.9-0.5-3.8-1.1-5.8-1.7c0-1.5,0-2.9,0-4.6c6.3,0,12.6,0,19.1,0
				c4.7,11.2,9.5,22.5,14.5,34.4c4.9-11.9,9.5-23.1,14.2-34.5c6,0,11.9,0,18,0c0,1.5,0,3,0,4.7c-1.7,0.4-3.6,0.9-5.4,1.3
				c-0.5,2.1-0.7,30.9-0.3,37.6c0.7,0.3,1.5,0.7,2.4,1c0.9,0.3,1.7,0.5,2.8,0.8c0,1.4,0,2.8,0,4.4c-7.2,0-14.4,0-21.7,0
				c0-1.5,0-2.8,0-4.3c1.7-0.5,3.3-1.1,5.1-1.7c0-9.2,0-18.4,0-27.5C428,209.8,427.9,209.8,427.8,209.8z"/>
			<path fill="#601531" d="M703.3,199.8c-1.7-0.6-3.5-1.2-5.3-1.8c0-1.5,0-2.9,0-4.6c6.4,0,12.6,0,19.1,0c0,1.5,0,2.9,0,4.6
				c-1.7,0.6-3.5,1.2-5.4,1.9c0,14.5,0,28.9,0,43.4c-2.3,0-4.4,0-6.8,0c-8-9.9-16.1-19.9-24.5-30.4c0,8.4,0,16.2,0,24.3
				c1.6,0.6,3.4,1.2,5.3,1.9c0,1.3,0,2.7,0,4.2c-6.4,0-12.6,0-19.1,0c-0.1-0.8-0.1-1.5-0.1-2.2c0-0.6,0.1-1.3,0.1-2
				c1.8-0.6,3.6-1.2,5.6-1.8c0-1.1,0-2.1,0-3.1c0-9.5-0.2-18.9,0.1-28.4c0.1-3.6-1.8-5.4-4.4-6.8c-0.6-0.3-1.4-0.5-2.1-0.8
				c0-1.5,0-2.9,0-4.7c2.2-0.2,4.5-0.1,6.7-0.1c2.2,0,4.4,0,6.7,0c8,10.1,16,20.1,24.4,30.6C703.3,215.5,703.3,207.8,703.3,199.8z"
				/>
			<path fill="#601531" d="M497.7,199.8c-1.8-0.6-3.6-1.2-5.4-1.8c0-1.5,0-3,0-4.6c0.7-0.1,1.5-0.2,2.2-0.2c6.7,0,13.4,0,20.1,0
				c3.4,0,6.7,0.5,10,1.6c10.8,3.6,10.8,16,5,21.7c-1.3,1.3-2.8,2.4-4.3,3.6c2.5,5.1,5,10.3,7.6,15.4c0.4,0.7,1.2,1.4,2,1.7
				c1.7,0.7,3.5,1.1,5.3,1.7c0,1.4,0,2.7,0,4.3c-5.5,0-11.1,0-16.8,0c-3.1-6.6-6.3-13.3-9.5-20.1c-1.4,0-2.8,0-4.3,0
				c0,4.6,0,9.2,0,14.1c1.6,0.5,3.4,1.1,5.4,1.8c0,1.3,0,2.8,0,4.3c-7.6,0-15.1,0-22.7,0c0-0.7-0.1-1.2-0.1-1.7c0-0.8,0-1.6,0-2.5
				c1.9-0.7,3.7-1.3,5.5-1.9C497.7,224.7,497.7,212.4,497.7,199.8z M509.6,217.5c2.2-0.2,4.3-0.4,6.4-0.5c1.2,0,2.1-0.5,2.8-1.4
				c2.4-2.9,3.1-6.2,2.4-9.8c-0.6-3.1-2.6-5-5.7-5.7c-2-0.4-3.9-0.4-5.9-0.1C509.6,205.9,509.6,211.6,509.6,217.5z"/>
			<path fill="#601531" d="M477.8,236.8c1.3-2.9,2.6-5.9,3.9-8.9c2.3,0,4.7,0,7.3,0c-0.3,5.2-0.6,10.3-0.9,15.5
				c-13.4,0-26.5,0-39.8,0c0-1.5,0-2.9,0-4.3c1.9-0.6,3.6-1.2,5.3-1.8c0-12.5,0-24.8,0-37.4c-1.7-0.6-3.5-1.2-5.4-1.8
				c0-1.4,0-2.9,0-4.3c1.9-0.5,35.7-0.6,39.1-0.1c0.2,5.1,0.4,10.2,0.5,15.5c-2.5,0-4.9,0-7.5,0c-1-2.9-2-5.9-3-9
				c-3.9,0-7.8,0-11.9,0c0,4.7,0,9.2,0,14c4.3,0,8.5,0,12.8,0c0,2.4,0,4.6,0,7c-4.2,0-8.4,0-12.8,0c0,5.4,0,10.5,0,15.7
				C469.6,236.8,473.5,236.8,477.8,236.8z"/>
			<path fill="#601531" d="M377.7,243.3c-7.8,0-15.6,0-23.5,0c-0.6-1.3-0.2-2.8-0.3-4.2c1.9-0.6,3.6-1.2,5.6-1.8
				c-0.9-3-1.8-5.8-2.8-8.7c-5.7,0-11.3,0-17.1,0c-0.9,2.8-1.9,5.6-2.9,8.7c1.8,0.6,3.5,1.2,5.4,1.8c0,1.3,0,2.6,0,4
				c-1.8,0.5-16,0.6-19.1,0.1c0-1.3,0-2.7,0-4.1c1-0.3,1.9-0.6,2.9-0.8c1.8-0.4,2.8-1.3,3.4-3.1c3.1-9.2,6.4-18.3,9.6-27.5
				c1.6-4.7,3.3-9.3,5-14.1c4.3,0,8.6,0,13.1,0c5,14.5,10.1,29,15.2,43.8c1.7,0.5,3.5,1.1,5.5,1.7
				C377.7,240.3,377.7,241.7,377.7,243.3z M341.9,221.7c4.3,0,8.4,0,12.7,0c-2-6.4-4-12.5-6-18.6c-0.2,0-0.4,0-0.6,0
				C346,209.3,343.9,215.5,341.9,221.7z"/>
			<path fill="#601531" d="M626.4,228.5c-1,2.9-1.9,5.6-2.9,8.7c1.8,0.6,3.5,1.2,5.4,1.8c0,1.3,0,2.7,0,4.3c-6.4,0-12.6,0-19.1,0
				c0-1.5,0-2.8,0-4.3c1-0.3,2-0.7,3.1-0.9c1.7-0.4,2.6-1.3,3.1-3c4.5-12.9,9-25.8,13.5-38.7c0.4-1,0.7-2,1.1-3.1c4.4,0,8.6,0,13,0
				c5.1,14.5,10.1,29,15.3,43.9c1.6,0.5,3.4,1.1,5.5,1.8c0,1.3,0,2.7,0,4.3c-7.9,0-15.7,0-23.7,0c0-1.5,0-2.8,0-4.2
				c1.8-0.6,3.6-1.2,5.5-1.9c-1-3-1.9-5.8-2.8-8.7C637.9,228.5,632.3,228.5,626.4,228.5z M635.4,203.2c-0.2,0-0.5,0-0.7,0
				c-2,6.2-4,12.3-6.1,18.6c4.4,0,8.4,0,12.7,0C639.3,215.4,637.4,209.3,635.4,203.2z"/>
			<path fill="#601531" d="M605.9,195.4c0,4.6,0,9,0,13.6c-2.3,0-4.6,0-7.1,0c-0.5-1.9-1.2-4-1.6-6.1c-0.3-1.6-1.1-2.3-2.6-2.7
				c-2.4-0.5-4.8-1-7.3-0.7c-1.2,0.2-2,0.7-2.7,1.7c-1.4,2.2-2.5,4.5-3,7c-1.3,6.3-1.3,12.6,0.7,18.8c0.4,1.3,1,2.6,1.7,3.8
				c4.1,7,13.2,7.1,17.8,2.6c1-1,2-2.1,3.1-3.3c1.2,0.8,2.3,1.5,3.6,2.4c-3.6,6.6-8.7,10.9-16.2,11.5c-12.8,1-22.3-7.2-23.9-19.9
				c-0.8-6.8,0-13.2,3.2-19.2c4.1-7.8,10.6-11.9,19.5-12.2C596.1,192.5,601,193.3,605.9,195.4z"/>
			<path fill="#601531" d="M565,193.4c0,1.6,0,3,0,4.5c-1.8,0.6-3.5,1.2-5.3,1.8c0,12.6,0,25,0,37.8c1.6,0.5,3.3,1.1,5.2,1.7
				c0,1.2,0,2.5,0,3.9c-7.5,0-15,0-22.7,0c0-1.3,0-2.6,0-3.9c1.8-0.5,3.6-1.1,5.4-1.7c0-12.7,0-25.1,0-37.9
				c-1.8-0.6-3.6-1.2-5.5-1.8c0-1.4,0-2.9,0-4.5C549.8,193.4,557.3,193.4,565,193.4z"/>
		</g>
		<g>
			<path fill="#601531" d="M623.4,307.9c1.7,0.6,3.3,1.1,5.2,1.7c0,1.3,0,2.7,0,4.3c-7.3,0-14.4,0-21.8,0c0-1.4,0-2.8,0-4.3
				c1.6-0.6,3.3-1.1,5-1.7c0-9.2,0-18.3,0-27.3c-0.1,0-0.2-0.1-0.3-0.1c-4.8,11.2-9.6,22.3-14.3,33.6c-1.7,0-3.4,0-5.1,0
				c-4.9-11.3-9.9-22.6-14.8-33.9c-0.1,0-0.2,0.1-0.3,0.1c0,9.1,0,18.2,0,27.6c1.8,0.6,3.5,1.2,5.4,1.9c0,1.3,0,2.7,0,4
				c-1.8,0.5-14.7,0.6-19.1,0.2c0-1.3,0-2.7,0-4.2c1.7-0.6,3.6-1.2,5.4-1.8c0-12.6,0-24.9,0-37.6c-1.9-0.5-3.9-1.1-5.9-1.7
				c0-1.5,0-2.9,0-4.4c1.9-0.5,14.5-0.7,19.2-0.2c4.7,11.2,9.5,22.6,14.5,34.5c4.9-11.8,9.5-23.1,14.2-34.5c6,0,12,0,18.1,0
				c0,1.6,0,3.1,0,4.7c-1.8,0.5-3.7,0.9-5.6,1.4C623.4,282.7,623.4,295.1,623.4,307.9z"/>
			<path fill="#601531" d="M474.6,308c1.8,0.6,3.5,1.1,5.3,1.7c0,1.3,0,2.7,0,4.1c-1.8,0.5-14.3,0.7-19.1,0.2c0-1.4,0-2.8,0-4.3
				c1.8-0.6,3.6-1.2,5.5-1.8c0-1.1,0-2.1,0-3c0-9.5-0.2-19,0.1-28.5c0.1-3.6-1.7-5.4-4.5-6.9c-0.7-0.3-1.4-0.6-2.2-0.9
				c0-1.5,0-3,0-4.6c0.8-0.1,1.4-0.1,2.1-0.1c3,0,5.9,0.1,8.9,0c1.9-0.1,3,0.6,4.1,2c5.6,7.2,11.3,14.3,17,21.5
				c1.4,1.8,2.8,3.5,4.2,5.3c0.4,0.5,0.7,1.2,1.1,1.7c0.2-0.2,0.3-0.3,0.5-0.5c0-7.7,0-15.5,0-23.5c-1.7-0.6-3.5-1.1-5.5-1.8
				c0-1.4,0-3,0-4.6c6.4,0,12.7,0,19.1,0c0,1.6,0,3.2,0,4.6c-1.8,0.6-3.6,1.1-5.5,1.7c0,14.6,0,29,0,43.6c-2.3,0-4.4,0-6.7,0
				c-8-9.9-16.1-20-24.4-30.2C474.3,285.9,474.1,302.7,474.6,308z"/>
			<path fill="#601531" d="M411.2,288.8c0.2-6.4,1.6-12.3,5.6-17.4c3.8-4.8,8.8-7.4,14.7-8c2.8-0.3,5.8-0.4,8.6,0.2
				c8.6,1.7,13.9,7.2,16.7,15.2c2.5,7.1,2.5,14.4-0.3,21.5c-3.5,8.9-10.3,13.5-19.7,14.3c-5.2,0.5-10.1-0.4-14.5-3.3
				c-5.6-3.6-8.7-8.9-10.1-15.3C411.6,293.7,411.5,291.2,411.2,288.8z M446.2,291.7c-0.2-2.5-0.3-5-0.7-7.5
				c-0.5-3.3-1.5-6.4-3.4-9.2c-2.6-3.6-6.1-5.1-10.4-4.8c-3,0.2-5.3,1.4-6.1,4.6c-0.3,1.1-0.7,2.1-1,3.2c-1.3,5.4-1.1,10.9-0.2,16.3
				c0.5,2.8,1.3,5.6,2.8,8.1c2.3,3.8,5.5,5.9,10,6c3.3,0.1,5.4-1.2,6.6-4.2C445.5,300.2,446.1,296,446.2,291.7z"/>
			<path fill="#601531" d="M537.8,263.2c10-0.1,17.9,5.5,21.4,15.3c2.6,7.2,2.6,14.5-0.1,21.7c-3.1,8.4-11,14-19.9,14.5
				c-5.1,0.3-9.9-0.5-14.2-3.3c-5.2-3.4-8.4-8.3-9.9-14.2c-1.7-6.7-1.6-13.3,0.9-19.7c3.5-8.9,10.3-13.5,19.8-14.2
				C536.4,263.2,537.1,263.2,537.8,263.2z M548.7,290.8c-0.1-1.4-0.2-3.9-0.6-6.4c-0.5-3.3-1.4-6.4-3.4-9.2c-2.5-3.6-6-5.2-10.3-4.9
				c-3.1,0.2-5.5,1.3-6.3,4.7c-0.2,1.1-0.7,2.1-1,3.2c-1.3,5.4-1,10.9-0.1,16.3c0.5,2.8,1.3,5.6,2.8,8.1c2.2,3.6,5.2,5.8,9.5,5.8
				c4.9,0,5.2-0.4,7.2-4.8C548.3,299.9,548.6,295.9,548.7,290.8z"/>
			<path fill="#601531" d="M341.2,307.7c4.1,0,8,0,12.2,0c1.3-3,2.7-6.1,4-9.2c2.3,0,4.6,0,7,0c0.3,5.2-0.6,10.2-0.6,15.5
				c-13.4,0-26.6,0-40,0c0-1.4,0-2.7,0-4.3c1.7-0.6,3.5-1.2,5.4-1.8c0-12.5,0-24.8,0-37.2c-1.5-1.3-3.5-1.4-5.4-1.9
				c0-1.6,0-3.1,0-4.8c13,0,25.9,0,39.2,0c0.5,5.1,0.3,10.3,0.5,15.7c-2.4,0-4.7,0-7.3,0c-1-2.9-2-5.9-3.1-9.1c-3.9,0-7.8,0-11.9,0
				c0,4.6,0,9.2,0,13.9c4.2,0,8.3,0,12.7,0c0,2.4,0,4.5,0,7c-4.1,0.3-8.3,0-12.7,0.2C341.2,297,341.2,302.2,341.2,307.7z"/>
			<path fill="#601531" d="M405.9,266c0,4.6,0,8.9,0,13.6c-2.3,0.3-4.7,0.1-7.2,0.1c-0.6-2.2-1.3-4.4-1.7-6.6
				c-0.3-1.4-1-1.9-2.2-2.3c-3-0.9-6-1-9.1-0.7c-2,2-3.3,4.4-4,7.1c-1.7,6.4-1.7,12.9,0,19.4c0.4,1.6,1.1,3.1,1.9,4.5
				c4.1,7.3,13.8,7.1,18.2,2.4c0.9-1,1.7-1.9,2.8-3.1c1.1,0.7,2.3,1.5,3.7,2.4c-3.6,6.5-8.6,10.8-15.9,11.5
				c-13.9,1.3-23-7.9-24.3-20.6c-0.7-6.6,0.1-12.9,3.3-18.7c4.1-7.5,10.4-11.7,19.1-12.1C395.8,263,400.9,263.8,405.9,266z"/>
			<path fill="#601531" d="M696.2,266.1c0,4.5,0,8.9,0,13.5c-2.4,0-4.7,0-7.2,0c-0.6-2.1-1.2-4.2-1.6-6.3c-0.3-1.5-1-2-2.3-2.4
				c-2.5-0.8-5.1-0.9-7.8-0.7c-1.1,0-1.7,0.6-2.4,1.4c-2.4,3.1-3.4,6.7-3.8,10.4c-0.5,4.9-0.6,9.9,0.9,14.8c0.5,1.6,1.1,3.1,1.9,4.6
				c4.2,7.4,13.9,7.2,18.3,2.4c0.9-1,1.7-1.9,2.7-3c1.1,0.8,2.3,1.5,3.5,2.4c-0.2,0.5-0.3,0.9-0.5,1.2c-4.7,7.6-11.4,11.4-20.3,10.4
				c-8.7-1-14.7-5.7-17.6-13.9c-3.1-8.7-2.6-17.3,1.7-25.5c4-7.5,10.3-11.6,18.9-11.9c4.8-0.2,9.5,0.4,14.1,2.2
				C695.3,265.6,695.7,265.9,696.2,266.1z"/>
			<path fill="#601531" d="M655.2,264c0,1.7,0,3,0,4.5c-1.8,0.6-3.6,1.1-5.5,1.7c0,12.7,0,25.2,0,38c1.7,0.6,3.5,1.2,5.4,1.8
				c0,1.2,0,2.5,0,3.9c-7.6,0-15.1,0-22.8,0c0-1.3,0-2.6,0-3.9c1.7-0.5,3.4-1.1,5.2-1.6c0-12.7,0-25.2,0-38
				c-1.6-0.6-3.4-1.2-5.3-1.9c0-1.4,0-2.9,0-4.5C640,264,647.5,264,655.2,264z"/>
		</g>
	</g>
</g>
</svg>
